Patient4_TMGait_0pt7_01_left_41_EMG.mot
version=1
nRows=40
nColumns=33
inDegrees=no
endheader
time	1LAddLong	2LGlutMax	3LGlutMed	4LIliopsoas	5LSemiMemb	6LBicFemLong	7LRecFem	8LVastMed	9LVastLat	10LGasMed	11LTibAnt	12lTibPost	13LPeroneusLong	14LSol	15LExtDigLong	16LFlexDigLong	17RAddLong	18RGlutMax	19RGlutMed	20RIliopsoas	21RSemiMemb	22RBicFemLong	23RRecFem	24RVastMed	25RVastLat	26RGasMed	27RTibAnt	28RTibPost	29RPeroneusLong	30RSol	31RExtDigLong	32RFlexDigLong
47.47	0.010834	0.60928	-0.028839	-0.022736	-0.00473	-0.010071	0.15366	0.008698	0.29999	-0.063629	0.036469	0.006104	-0.011902	-0.026855	0.048065	0.00885	0.002899	0.26443	-0.36652	0.043945	0.066071	0.1355	0.45609	-0.036163	-0.13763	-0.023346	0.037842	-0.025635	0.177	-0.10239	-0.00412	-0.000916
47.471	0.007172	0.5368	-0.024719	-0.014801	-0.001831	-0.016632	0.18188	0.010223	0.29678	-0.056763	0.029449	-0.000916	0.041351	-0.18753	0.022583	0.010834	-0.022278	0.31357	-0.23377	0.018921	0.09613	0.38177	0.30151	-0.051575	-0.16403	0.01297	0.28412	-0.002747	0.079346	-0.041351	-0.004883	0.002289
47.472	0.010529	0.50415	-0.030975	-0.001526	-0.001526	-0.021057	0.18097	0.007172	0.27527	-0.08255	-0.048981	0.016937	0.055237	-0.1062	0.028076	0.00824	-0.023651	0.30258	-0.021667	-0.10727	0.073242	0.085144	0.033417	-0.084991	-0.15213	-0.010071	0.27786	0.066223	-0.010529	0.13657	-0.002594	0.000916
47.473	0.024109	0.46112	-0.03891	0.003357	-0.004272	-0.018768	0.16617	0.012817	0.28137	-0.044403	-0.053864	0.000916	-0.00946	0.18082	0.024414	0.008087	-0.019226	0.30685	0.57846	-0.13214	0.069733	-0.07843	-0.23682	-0.1326	-0.063782	-0.013733	0.23529	0.014038	0.010834	0.43991	-0.002594	0.008087
47.474	0.01709	0.39551	-0.042419	-0.010681	-0.005951	-0.011139	0.18433	0.005798	0.26932	-0.058136	-0.055847	-0.005493	-0.002441	0.23239	-0.007019	0.023499	-0.020599	0.29221	0.2742	-0.14008	0.045471	-0.074768	-0.25726	0.056458	0.074768	-0.012054	0.009613	-0.000305	0.062256	0.60821	-0.001068	-0.007782
47.475	0.012665	0.32654	-0.057831	0.001526	-0.006714	-0.007782	0.17868	0.017548	0.25452	-0.050659	-0.033112	-0.003815	0.035553	0.18112	-0.030365	0.026093	0.014191	0.3569	-0.10925	-0.10025	0.031433	-0.041199	0.26108	0.088348	0.038452	-0.031586	-0.38315	-0.011444	-0.032654	0.24918	-0.00824	-0.004272
47.476	0.015411	0.31311	-0.049286	0.024414	-0.011444	0.00061	0.15366	0.011597	0.24353	-0.033417	0.045166	0.001373	0.039063	0.18524	-0.004883	0.018463	0.025177	0.38116	-0.31769	-0.014343	0.034332	-0.015717	0.70648	0.06546	-0.07782	-0.012207	0.20462	-0.006866	-0.10162	-0.18249	-0.002441	0.002441
47.477	0.015564	0.3067	-0.050049	0.014648	-0.011749	-0.000305	0.1738	0.006866	0.24475	0.00824	0.14801	0.004883	0.006561	0.093689	0.006561	0.015106	0.00824	0.30807	-0.18799	0.072021	0.037079	-0.06958	0.60333	-0.008087	-0.19058	-0.017395	0.55573	-0.007935	-0.18494	-0.31021	-0.001221	-0.000305
47.478	0.023956	0.34347	-0.004883	0.003052	-0.016327	-0.001831	0.14816	0.006104	0.24689	0.009155	0.097198	-0.001373	0.026245	-0.12253	-0.022583	0.018005	-0.012207	0.43518	0.027161	0.12009	0.047455	-0.16083	0.17456	-0.18188	-0.22598	-0.018921	0.58197	-0.031128	-0.32425	-0.33249	-0.002747	-0.008698
47.479	0.00351	0.27634	0.016022	-0.004883	-0.006256	-0.022583	0.14313	0.001984	0.24979	0.030823	0.081024	-0.002289	-0.002136	-0.17273	0.005951	0.015259	-0.025787	0.46692	-0.13306	0.12085	0.027161	-0.13748	-0.15762	-0.24994	-0.18021	-0.006256	0.10071	0.017548	-0.1593	-0.30762	-0.001526	-0.00061
47.48	0.016022	0.065002	-0.010834	-0.003357	-0.005493	-0.028992	0.12863	0.007019	0.24567	-0.002899	0.092316	0.002136	0.001984	-0.077209	0.065918	-0.002441	-0.024414	0.5484	-0.15381	0.079651	-0.003204	-0.16174	-0.67673	-0.094604	0.040588	0.000153	-0.27359	0.013733	0.22064	-0.31982	-0.001373	0.001526
47.481	0.00824	-0.042572	-0.015106	0.014801	-0.000458	-0.0354	0.11169	0.015411	0.24323	-0.048676	0.12405	0.021362	-0.014954	-0.058136	0.14114	0.003967	-0.02655	0.58777	0.11444	0.017853	-0.035553	-0.19455	-0.89371	-0.040283	0.25085	-0.000153	0.36865	-0.002136	0.37735	-0.34836	-0.002136	0.006714
47.482	0.016632	-0.011902	-0.014648	0.025635	0.00061	-0.061646	0.080414	0.009308	0.2446	-0.038757	0.012207	0.020142	0.054169	-0.019684	0.069427	-0.93307	-0.011444	0.60821	-0.058746	0.01297	-0.026703	-0.20935	-0.70023	0.29953	0.40298	0.016327	-0.27161	0.002747	0.49484	-0.50491	-0.001068	0.013275
47.483	0.014648	0.025024	-0.035553	0.023956	0.000916	-0.053711	0.055695	0.008698	0.23712	-0.078735	-0.066833	-0.003204	0.099487	0.061035	-0.045319	-0.019531	0.010376	0.61752	-0.0737	0.028229	-0.053101	-0.20538	-0.19867	0.28153	0.34378	0.010223	-1.0353	-0.001068	0.31799	-0.46692	-0.003357	0.00885
47.484	0.00885	0.008392	-0.041351	0.005341	-0.007629	-0.068512	0.064087	0.006256	0.23972	-0.053711	-0.00824	0.003815	0.038757	0.074005	-0.1033	0.6044	0.021057	0.61783	0.1976	0.032654	-0.061035	-0.17471	-0.10376	0.099182	0.17273	0.003357	-0.34912	-0.005951	-0.018463	-0.34454	-0.005798	0.000763
47.485	-0.004272	-0.018005	-0.08316	0.002747	-0.003815	-0.084991	0.04715	0.003357	0.24078	-0.036163	0.039215	-0.011139	-0.007324	0.071411	-0.10834	-0.13596	0.005951	0.59601	0.054626	0.054321	-0.041199	-0.10986	0.10849	0.15457	0.11826	-0.007935	0.11215	-0.00946	-0.19806	-0.14999	-0.002289	-0.000305
47.486	-0.001373	-0.046844	-0.059204	0.015259	-0.003052	-0.10239	0.034332	0.007324	0.22217	-0.027771	0.032196	-0.005035	0.002747	0.043945	-0.096283	-0.042572	0.010529	0.59097	-0.21011	0.041656	-0.024414	-0.085602	0.30624	0.13504	0.10208	-0.015717	-0.33783	-0.00473	-0.081635	0.045471	-0.003967	0.000458
47.487	0.001068	-0.062103	-0.061798	0.017548	-0.009155	-0.089111	0.0354	0.014191	0.2182	-0.064545	-0.01297	-0.006866	0.007477	0.041962	-0.058441	1.2105	-0.002441	0.52506	-0.32486	0.01297	-0.02243	-0.037079	0.21622	0.087433	-0.03418	0.001068	-0.32852	-0.005798	0.12558	0.10162	-0.001526	0.002136
47.488	0.007477	-0.084229	-0.066528	0.007782	-0.012817	-0.077057	0.041351	0.002289	0.21912	-0.064087	-0.079651	-0.001221	0.046234	0.013123	-0.013733	-0.51071	-0.002899	0.5249	-0.17166	-0.044403	-0.036621	-0.068512	-0.02655	0.012817	-0.06897	-0.001221	0.12421	-0.001831	0.1326	0.27405	-0.005341	-0.002899
47.489	0.010529	-0.080872	-0.016022	0.001373	-0.016022	-0.075531	0.006409	0.003204	0.20432	-0.031128	-0.07843	-0.002594	0.029755	-0.001373	0.015869	0.058899	0.007935	0.57907	0.06424	-0.065613	-0.089111	-0.07309	-0.032654	-0.002899	-0.022736	-0.002289	0.055847	-0.009918	0.095978	0.35812	-0.000305	-0.003052
47.49	0.00946	-0.035248	-0.032196	0.003052	-0.020447	-0.05661	0.007935	0.000916	0.19196	-0.018158	-0.032043	-0.005798	0.05188	-0.013275	0.02533	0.29098	0.025635	0.51804	0.091248	-0.09552	-0.082397	-0.082855	-0.009918	-0.050049	0.045929	-0.001373	0.094147	-0.006866	0.083618	0.20035	-0.000305	-0.006714
47.491	-0.000763	-0.049286	-0.038757	-0.004272	-0.020905	-0.052338	0.004425	-0.00412	0.18448	-0.029755	0.023041	-0.001984	0.03891	-0.041504	-0.05188	0.30853	0.041809	0.40588	-0.1413	-0.016174	0.019836	-0.071411	-0.002747	-0.08194	0.019989	-0.012817	0.092621	-0.004578	0.18723	0.11307	-0.003815	-0.01297
47.492	-0.004578	-0.063782	-0.079193	0.007935	-0.014343	-0.023651	0.004272	0.010834	0.16312	-0.04776	0.030518	-0.00412	0.001526	-0.012512	0.069275	0.13855	0.071869	0.37231	0.02121	0.027466	-0.039368	-0.03952	0.081635	-0.10986	-0.015411	-0.020905	0.18433	-0.002899	0.18616	0.082397	-0.002899	-0.013733
47.493	0.006866	-0.040741	-0.082092	0.019684	-0.015411	-0.009308	-0.011444	0.012817	0.16068	-0.091858	0.10803	-0.005341	-0.019989	0.015259	0.36087	0.06897	0.074768	0.28961	0.34882	0.054321	-0.14908	-0.046234	0.11002	-0.079041	-0.057678	-0.002136	-0.10635	-0.008087	-0.24231	0.023499	-0.007935	-0.012207
47.494	0.011292	-0.069427	-0.050049	0.026855	0.027771	0.011139	0.00824	0.00885	0.16525	-0.1358	0.15823	-0.005188	-0.007782	0.067291	-0.025482	0.012817	0.004272	0.2829	0.22568	0.03479	0.007935	-0.053253	0.092468	0.03067	-0.007019	-0.012207	-0.21668	-0.006256	-0.18967	-0.015106	-0.002747	-0.017242
47.495	0.020294	-0.047607	-0.021667	0.00824	0.039978	-0.00061	-0.015717	0.006104	0.14832	-0.12375	0.15579	-0.000305	0.03952	0.021057	-0.066833	-0.065308	-0.00351	0.27542	0.04425	0.036774	0.048676	-0.011292	0.093079	0.072784	0.024109	-0.013733	-0.026855	-0.007629	-0.093536	0.13107	-0.001678	-0.010223
47.496	0.022278	-0.056458	-0.028076	0.014648	-0.016327	-0.011902	-0.008087	0.003662	0.15167	-0.13947	0.022583	-0.001678	0.13001	-0.010376	-0.16022	-0.067902	-0.049896	0.22324	0.3064	0.030823	-0.035248	0.023804	0.089264	0.053406	-0.000458	-0.011444	-0.011597	-0.00885	-0.088196	0.38635	-0.003204	-0.00351
47.497	0.021515	-0.023651	0.056458	0.004425	-0.014648	-0.048676	-0.030365	0.005798	0.14252	-0.094299	-0.10696	0.001221	0.17883	0.022888	-0.18509	-0.052032	-0.084686	0.10574	0.30411	0.092468	-0.18127	-0.001831	0.071411	0.13825	0.047455	-0.013428	0.081177	-0.002594	-0.12772	0.29785	0.001068	-0.011444
47.498	0.017853	-0.002899	-0.026245	0.002747	-0.033569	-0.058289	-0.028229	0.007172	0.14389	0.054779	-0.031586	-0.003052	0.15991	0.06073	0.15869	-0.015106	-0.07843	0.12314	0.27481	0.081329	-0.028687	-0.08667	0.18036	0.19775	0.14938	-0.010529	0.24735	-0.003815	-0.13153	-0.10803	-0.003052	0.006104
47.499	0.020447	0.076447	-0.020142	0.01236	-0.02655	-0.05188	-0.025482	0.016022	0.13779	0.076447	-0.03067	-0.010223	0.062561	0.11124	0.063934	0.012665	-0.05188	0.16541	0.17151	0.071106	0.067444	-0.16144	0.22492	0.15228	0.24033	-0.010681	0.18539	-0.000153	-0.091858	-0.28351	-0.004272	-0.005798
47.5	0.022278	0.075531	-0.063019	0.02533	0.011902	-0.036774	-0.027618	0.001526	0.13794	0.14633	-0.035553	-0.000458	0.042114	0.076294	-0.089111	-0.014801	-0.019836	0.11551	-0.23132	0.072632	0.10391	-0.13443	0.30334	0.12817	0.22339	-0.016632	0.16464	-0.000153	-0.084839	-0.34531	0.005951	-0.000763
47.501	0.017242	0.07019	-0.079498	0.02243	0.010834	-0.027924	-0.024261	0.007477	0.13443	0.14999	-0.02655	-0.012817	0.062103	0.008392	-0.16754	-0.063782	-0.022736	0.045013	0.3096	0.034637	0.066986	-0.14999	0.35309	0.16098	0.15961	0.014801	0.34607	-0.002747	0.10178	0.001526	-0.00061	-0.001678
47.502	0.015869	0.042267	-0.014038	0.010223	0.019836	-0.012207	-0.042114	0.004578	0.1358	0.09552	0.018921	-0.001831	0.1149	-0.10712	-0.15198	-0.068054	-0.019226	-0.01236	1.3814	-0.050812	-0.006256	-0.099945	0.17349	0.15488	0.14267	0.026093	0.60883	-0.007019	0.12772	0.24307	0.000305	-0.008698
47.503	0.004425	0.10941	0.069733	0.009308	0.005646	-0.02121	-0.043488	0.00946	0.12436	0.048065	0.011444	-0.006714	0.12299	-0.18158	-0.048065	-0.058136	-0.033875	-0.011597	1.3681	-0.02594	0.033264	-0.050354	-0.21164	-0.035858	0.3389	0.011444	0.82413	-0.007629	-0.029297	0.34759	0.001068	-0.009308
47.504	0.004883	0.12482	0.04303	0.028381	-0.002747	-0.010071	-0.037231	0.001221	0.121	0.018158	0.005951	-0.002899	0.12482	-0.19089	-0.01358	-0.039368	-0.040588	-0.13992	0.87784	0.002747	0.050201	-0.045776	-0.16403	-0.33035	0.47043	-0.038605	0.78384	0.00061	0.005035	-0.025482	-0.001526	-0.002899
47.505	0.007019	0.14542	-0.018311	0.020905	-0.013733	-0.021667	-0.052948	-0.003357	0.11414	-0.021667	-0.037994	-0.002747	0.12543	-0.17425	-0.022888	-0.006104	-0.028229	-0.19486	0.86502	0.021515	0.029297	-0.095367	0.014038	-0.43579	0.30807	-0.03479	0.15549	-0.000458	0.054626	-0.18997	-0.001831	-0.00824
47.506	0.003662	0.23209	-0.011597	0.007935	-0.023956	-0.043335	-0.061798	-0.002594	0.11414	-0.003204	-0.04303	0.007019	0.095062	-0.25818	0.10712	-0.014191	-0.020752	-0.16296	0.58701	0.029907	-0.002441	-0.1062	-0.18982	-0.4747	0.29098	-0.024719	-0.38025	-0.00351	-0.068054	0.051422	-0.000305	-0.007935
47.507	-0.000153	0.29633	-0.027771	0.017395	-0.014648	-0.032501	-0.061798	0.001831	0.10803	0.023346	-0.00412	0.005188	0.048981	-0.37811	0.13214	-0.015869	-0.030212	-0.12756	0.336	0.015259	-0.016327	-0.11505	-0.50186	-0.25681	0.42496	-0.019684	-0.61874	-0.001831	-0.09613	0.071411	0.000305	-0.011139
47.508	0.011292	0.3067	-0.058746	0.000305	-0.007477	-0.010681	-0.054932	0.006714	0.11337	-0.003357	0.021362	0.009155	0.017395	-0.40604	-0.04303	-0.022278	-0.026398	-0.27176	0.016479	0.014191	-0.014343	-0.1088	-0.53894	-0.103	0.2652	-0.016937	0.38635	-0.001068	-0.13779	-0.034943	-0.002441	-0.010529
47.509	0.012207	0.31174	-0.078125	0.016632	-0.005646	-0.018005	-0.058746	0.002747	0.11475	-0.006714	0.032043	0.003204	0.021515	-0.33005	-0.031891	-0.016785	-0.018616	-0.43961	0.26672	-0.034332	0.006561	-0.055084	-0.42313	0.13947	0.061951	-0.023346	0.87372	-0.006409	-0.16815	-0.2507	-0.002289	-0.011597
